<svg xmlns="http://www.w3.org/2000/svg" x="0px" y="0px"
width="128" height="128"
viewBox="0 0 192 192"
style=" fill:#000000;"><g fill="none" fill-rule="nonzero" stroke="none" stroke-width="1" stroke-linecap="butt" stroke-linejoin="miter" stroke-miterlimit="10" stroke-dasharray="" stroke-dashoffset="0" font-family="none" font-weight="none" font-size="none" text-anchor="none" style="mix-blend-mode: normal"><path d="M0,192v-192h192v192z" fill="none"></path><g fill="#ffffff"><g id="surface1"><path d="M65.28,7.68c-12.675,0 -23.04,10.365 -23.04,23.04c0,7.62 3.75,14.4 9.48,18.6c-3.075,1.545 -5.88,3.54 -8.28,6c-2.79,-0.99 -5.76,-1.56 -8.88,-1.56c-14.805,0 -26.88,12.075 -26.88,26.88c0,9.405 4.875,17.76 12.24,22.56c-11.73,5.55 -19.92,17.43 -19.92,31.2v17.28c-0.015,1.23 0.57,2.385 1.56,3.12c0,0 2.715,1.92 7.92,3.48c5.205,1.56 13.245,3 25.08,3c11.835,0 19.875,-1.44 25.08,-3c0.675,-0.195 1.215,-0.39 1.8,-0.6v17.04c-0.015,1.23 0.57,2.385 1.56,3.12c0,0 2.715,1.92 7.92,3.48c5.205,1.56 13.245,3 25.08,3c11.835,0 19.875,-1.44 25.08,-3c5.205,-1.56 7.92,-3.48 7.92,-3.48c0.99,-0.735 1.575,-1.89 1.56,-3.12v-17.04c0.585,0.21 1.125,0.405 1.8,0.6c5.205,1.56 13.245,3 25.08,3c11.835,0 19.875,-1.44 25.08,-3c5.205,-1.56 7.92,-3.48 7.92,-3.48c0.99,-0.735 1.575,-1.89 1.56,-3.12v-17.28c0,-13.77 -8.19,-25.65 -19.92,-31.2c7.365,-4.8 12.24,-13.155 12.24,-22.56c0,-14.805 -12.075,-26.88 -26.88,-26.88c-3.345,0 -6.525,0.675 -9.48,1.8c-2.415,-2.535 -5.265,-4.65 -8.4,-6.24c5.73,-4.2 9.48,-10.98 9.48,-18.6c0,-12.675 -10.365,-23.04 -23.04,-23.04c-12.675,0 -23.04,10.365 -23.04,23.04c0,7.62 3.75,14.4 9.48,18.6c-8.82,4.35 -15.27,12.72 -16.8,22.8c-1.53,-10.095 -7.965,-18.465 -16.8,-22.8c5.73,-4.2 9.48,-10.98 9.48,-18.6c0,-12.675 -10.365,-23.04 -23.04,-23.04zM65.28,15.36c8.535,0 15.36,6.825 15.36,15.36c0,8.535 -6.825,15.36 -15.36,15.36c-8.535,0 -15.36,-6.825 -15.36,-15.36c0,-8.535 6.825,-15.36 15.36,-15.36zM126,15.36c8.535,0 15.36,6.825 15.36,15.36c0,8.535 -6.825,15.36 -15.36,15.36c-8.535,0 -15.36,-6.825 -15.36,-15.36c0,-8.535 6.825,-15.36 15.36,-15.36zM65.28,53.76c12.945,0 23.04,10.095 23.04,23.04v1.2c-11.04,3.345 -19.2,13.575 -19.2,25.68c0,9.405 4.875,17.76 12.24,22.56c-4.815,2.28 -8.94,5.625 -12.24,9.72v-1.56c0,-13.77 -8.19,-25.65 -19.92,-31.2c7.365,-4.8 12.24,-13.155 12.24,-22.56c0,-8.76 -4.275,-16.56 -10.8,-21.48c3.99,-3.405 8.94,-5.4 14.64,-5.4zM126,53.76c5.865,0 10.965,2.055 15,5.64c-6.33,4.92 -10.44,12.645 -10.44,21.24c0,9.405 4.875,17.76 12.24,22.56c-11.73,5.55 -19.92,17.43 -19.92,31.2v1.56c-3.3,-4.095 -7.425,-7.44 -12.24,-9.72c7.365,-4.8 12.24,-13.155 12.24,-22.56c0,-12.375 -8.49,-22.83 -19.92,-25.92v-0.96c0,-12.945 10.095,-23.04 23.04,-23.04zM34.56,61.44c2.985,0 5.76,0.72 8.28,1.92c6.45,3.09 10.92,9.615 10.92,17.28c0,10.65 -8.55,19.2 -19.2,19.2c-10.65,0 -19.2,-8.55 -19.2,-19.2c0,-10.65 8.55,-19.2 19.2,-19.2zM157.44,61.44c10.65,0 19.2,8.55 19.2,19.2c0,10.65 -8.55,19.2 -19.2,19.2c-10.65,0 -19.2,-8.55 -19.2,-19.2c0,-7.095 3.795,-13.23 9.48,-16.56c0.03,-0.015 0.09,0.015 0.12,0c0.57,-0.12 1.095,-0.36 1.56,-0.72c0.135,-0.06 0.225,-0.18 0.36,-0.24c0.075,-0.03 0.165,-0.075 0.24,-0.12c2.295,-0.975 4.785,-1.56 7.44,-1.56zM96,84.48c10.65,0 19.2,8.55 19.2,19.2c0,10.65 -8.55,19.2 -19.2,19.2c-10.65,0 -19.2,-8.55 -19.2,-19.2c0,-10.65 8.55,-19.2 19.2,-19.2zM34.56,107.52c14.805,0 26.88,12.075 26.88,26.88v14.76c-0.57,0.345 -0.795,0.735 -3.96,1.68c-4.395,1.32 -11.715,2.76 -22.92,2.76c-11.205,0 -18.525,-1.44 -22.92,-2.76c-3.165,-0.945 -3.39,-1.335 -3.96,-1.68v-14.76c0,-14.805 12.075,-26.88 26.88,-26.88zM157.44,107.52c14.805,0 26.88,12.075 26.88,26.88v14.76c-0.57,0.345 -0.795,0.735 -3.96,1.68c-4.395,1.32 -11.715,2.76 -22.92,2.76c-11.205,0 -18.525,-1.44 -22.92,-2.76c-3.165,-0.945 -3.39,-1.335 -3.96,-1.68v-14.76c0,-14.805 12.075,-26.88 26.88,-26.88zM96,130.56c14.805,0 26.88,12.075 26.88,26.88v14.76c-0.57,0.345 -0.795,0.735 -3.96,1.68c-4.395,1.32 -11.715,2.76 -22.92,2.76c-11.205,0 -18.525,-1.44 -22.92,-2.76c-3.165,-0.945 -3.39,-1.335 -3.96,-1.68v-14.76c0,-14.805 12.075,-26.88 26.88,-26.88z"></path></g></g></g></svg>