<svg xmlns="http://www.w3.org/2000/svg" x="0px" y="0px"
width="128" height="128"
viewBox="0 0 192 192"
style=" fill:#000000;"><g fill="none" fill-rule="nonzero" stroke="none" stroke-width="1" stroke-linecap="butt" stroke-linejoin="miter" stroke-miterlimit="10" stroke-dasharray="" stroke-dashoffset="0" font-family="none" font-weight="none" font-size="none" text-anchor="none" style="mix-blend-mode: normal"><path d="M0,192v-192h192v192z" fill="none"></path><g fill="#ffffff"><g id="surface1"><path d="M144.29297,10.35938c-3.10547,0 -6.21094,1.125 -8.48437,3.39844l-12.71484,12.72656c-2.34375,-2.34375 -6.15234,-2.34375 -8.48437,0l-16.96875,16.96875c-1.13672,1.13672 -1.76953,2.64844 -1.76953,4.25391c0,1.59375 0.63281,3.10547 1.76953,4.23047l0.14063,0.15234l-81.23437,81.10547c-1.51172,1.51172 -2.42578,3.51563 -2.60156,5.64844l-2.02735,25.18359l-2.10937,14.76563c-0.14062,0.9375 0.17578,1.875 0.85547,2.55469c0.5625,0.5625 1.32422,0.86719 2.10938,0.86719c0.15234,0 0.29297,0 0.43359,-0.02344l14.75391,-2.09766l25.33594,-1.875c2.15625,-0.15234 4.17188,-1.07812 5.69531,-2.60156l81.23438,-81.11719c1.11328,1.04297 2.54297,1.62891 4.07813,1.62891c1.60547,0 3.10547,-0.62109 4.24219,-1.75781l16.96875,-16.96875c2.34375,-2.34375 2.34375,-6.14062 0,-8.48437l12.73828,-12.72656c2.26172,-2.27344 3.50391,-5.28516 3.50391,-8.49609c0,-3.19922 -1.24219,-6.22266 -3.51562,-8.48437l-25.45312,-25.45313c-2.26172,-2.27344 -5.37891,-3.39844 -8.4961,-3.39844zM144.29297,16.30078c1.5586,0 3.11719,0.5625 4.25391,1.69922l25.45313,25.45313c1.13672,1.13672 1.75781,2.63672 1.75781,4.24219c0,1.60547 -0.6211,3.11719 -1.75781,4.24219l-12.72656,12.73828l-33.94922,-33.94922l12.73828,-12.72656c1.125,-1.13672 2.68359,-1.69922 4.23047,-1.69922zM118.83984,30.72656l2.13281,2.12109l38.17969,38.17969l2.1211,2.13281l-4.24219,4.23047c-1.17187,-1.17187 -3.07031,-1.17187 -4.24219,0l-4.24219,4.25391c-1.17187,1.17188 -1.17187,3.07031 0,4.24219l-4.24219,4.24219l-42.4336,-42.43359l4.24219,-4.24219c0.58594,0.58594 1.34766,0.87891 2.12109,0.87891c0.77344,0 1.53516,-0.29297 2.12109,-0.87891l4.25391,-4.24219c1.17188,-1.17187 1.17188,-3.07031 0,-4.24219zM123.09375,44.69531c-0.77344,0 -1.53516,0.29297 -2.12109,0.8789l-4.25391,4.24219c-1.17187,1.17188 -1.17187,3.07031 0,4.24219c0.58594,0.58594 1.35938,0.87891 2.12109,0.87891c0.77344,0 1.54688,-0.29297 2.13281,-0.87891l4.23047,-4.24219c1.18359,-1.17187 1.18359,-3.07031 0,-4.24219c-0.58594,-0.58594 -1.34766,-0.8789 -2.10937,-0.8789zM133.6875,55.3125c-0.76172,0 -1.52344,0.28125 -2.10937,0.87891l-4.25391,4.23047c-1.17187,1.18359 -1.17187,3.07031 0,4.25391c0.58594,0.57422 1.35938,0.86719 2.13281,0.86719c0.76172,0 1.53516,-0.29297 2.12109,-0.86719l4.23047,-4.25391c1.1836,-1.17187 1.1836,-3.05859 0,-4.23047c-0.58594,-0.59766 -1.34765,-0.87891 -2.12109,-0.87891zM102.03516,56.33203l33.9375,33.94922l-78.89062,78.76172l-2.85937,-14.29687l49.76953,-49.76953c1.17188,-1.17187 1.17188,-3.07031 0,-4.24219c-1.17187,-1.17187 -3.0586,-1.17187 -4.24219,0l-49.78125,49.78125l-7.06641,-1.41797l-1.41797,-7.07812l41.29688,-41.28516c1.18359,-1.18359 1.18359,-3.07031 0,-4.25391c-1.17187,-1.17187 -3.05859,-1.17187 -4.23047,0l-41.29687,41.29688l-13.99219,-2.78906zM144.30469,65.90625c-0.77344,0 -1.53516,0.29297 -2.1211,0.89063l-4.24219,4.23047c-1.17187,1.1836 -1.17187,3.07031 0,4.25391c0.58594,0.57422 1.34766,0.87891 2.12109,0.87891c0.77344,0 1.53516,-0.30469 2.12109,-0.87891l4.24219,-4.25391c1.17188,-1.17187 1.17188,-3.05859 0,-4.23047c-0.58594,-0.59766 -1.34766,-0.89062 -2.12109,-0.89062zM97.64063,78.64453c-0.77344,0 -1.53516,0.29297 -2.12109,0.86719l-8.48437,8.48438c-1.18359,1.1836 -1.18359,3.07031 0,4.25391c0.57422,0.57422 1.34766,0.87891 2.12109,0.87891c0.76172,0 1.53516,-0.30469 2.10938,-0.87891l8.48438,-8.48437c1.18359,-1.18359 1.18359,-3.07031 0,-4.25391c-0.58594,-0.58594 -1.34766,-0.8789 -2.10937,-0.86719zM19.82813,140.41406l15.85547,3.16406l1.72266,8.66016c0.24609,1.18359 1.17188,2.10938 2.35547,2.34375l8.64844,1.73438l3.19922,16.00781l-22.82812,1.67578l-10.78125,-10.76953z"></path></g></g></g></svg>